<svg xmlns="http://www.w3.org/2000/svg" viewBox="0 0 512 512" width="512" height="512">
  <rect width="512" height="512" rx="80" fill="#1e3a5f"/>
  <path d="M96 96c0-35.3 28.7-64 64-64H448c35.3 0 64 28.7 64 64V416c0 35.3-28.7 64-64 64H80c-44.2 0-80-35.8-80-80V128c0-17.7 14.3-32 32-32s32 14.3 32 32V400c0 8.8 7.2 16 16 16s16-7.2 16-16V96z" fill="white"/>
  <path d="M160 128v80c0 13.3 10.7 24 24 24s24-10.7 24-24V128c0-13.3-10.7-24-24-24s-24 10.7-24 24z" fill="#1e3a5f"/>
  <path d="M224 152v80c0 13.3 10.7 24 24 24s24-10.7 24-24V152c0-13.3-10.7-24-24-24s-24 10.7-24 24z" fill="#1e3a5f"/>
  <path d="M288 176v80c0 13.3 10.7 24 24 24s24-10.7 24-24V176c0-13.3-10.7-24-24-24s-24 10.7-24 24z" fill="#1e3a5f"/>
</svg>
